<?xml version="1.0" standalone="no"?><!DOCTYPE svg PUBLIC "-//W3C//DTD SVG 1.1//EN" "http://www.w3.org/Graphics/SVG/1.1/DTD/svg11.dtd"><svg t="1604155469264" class="icon" viewBox="0 0 1024 1024" version="1.1" xmlns="http://www.w3.org/2000/svg" p-id="2686" xmlns:xlink="http://www.w3.org/1999/xlink" width="200" height="200"><defs><style type="text/css"></style></defs><path d="M812.704 181.01013333h-69.0112a33.09866667 33.09866667 0 0 1 0-66.19733333h148.94506667a33.09866667 33.09866667 0 0 1 33.09866666 33.09866667v148.94506666a33.09866667 33.09866667 0 0 1-66.19733333 0v-69.0112l-208.3584 208.192a33.09866667 33.09866667 0 0 1-46.6688 0L379.60426667 211.296 138.1472 452.58666667a33.09866667 33.09866667 0 0 1-46.66986667-46.6688l264.79146667-264.79253334a33.09866667 33.09866667 0 0 1 46.66986667 0l224.90773333 224.7424z m-687.46666667 503.2704l248.2432-233.0176a33.09866667 33.09866667 0 0 1 46.00746667 0l185.68533333 187.01013334a33.09866667 33.09866667 0 0 0 46.00746667 0l202.23573333-190.32a33.09866667 33.09866667 0 0 1 55.77173334 24.82453333v419.86133333a33.09866667 33.09866667 0 0 1-33.09866667 33.09866667H147.9104a33.09866667 33.09866667 0 0 1-33.09866667-33.09866667v-184.36266666a33.09866667 33.09866667 0 0 1 10.4256-23.99573334z" p-id="2687"></path></svg>